<svg xmlns="http://www.w3.org/2000/svg" xml:space="preserve" id="Capa_1" width="418.089" height="418.089" x="0" y="0" viewBox="0 0 418.089 418.089"><path id="XMLID_228_" d="M197.232 378.074a7 7 0 0 1 7-7h1.972a7 7 0 1 1 0 14h-1.972a7 7 0 0 1-7-7m32.156-71.571a7 7 0 0 0 7 7h1.972a7 7 0 1 0 0-14h-1.972a7 7 0 0 0-7 7M348.913 58.032v24.735a7 7 0 0 1-7.656 6.97v253.488l.002.168-.002.168v47.795c0 14.74-11.991 26.731-26.729 26.731H95.909c-14.74 0-26.731-11.991-26.731-26.731v-47.845l-.001-.119.001-.119V26.731C69.177 11.991 81.169 0 95.909 0h218.618c14.738 0 26.729 11.991 26.729 26.731v24.332q.324-.03.656-.03a7 7 0 0 1 7.001 6.999M83.177 138.308c52.09.639 79.486 8.738 97.726 19.389-16.687-28.411-40.702-50.933-97.726-52.563zm244.079 212.086H83.177v40.964c0 7.02 5.711 12.731 12.731 12.731h218.618c7.019 0 12.729-5.711 12.729-12.731zm0-75.444c-39.193-.422-68.832-9.517-90.464-27.717-19.772-16.636-30.6-38.587-40.835-60.013-18.859-17.544-37.323-33.997-112.78-34.913v184.087h244.079zm0-47.22c-56.388-.271-85.547-8.572-104.706-19.601 17.45 29.226 43.051 52.145 104.706 52.821zm0-200.999c0-7.02-5.711-12.731-12.729-12.731H95.909c-7.02 0-12.731 5.711-12.731 12.731v64.398c36.433.989 64.127 10.14 84.519 27.893 19.08 16.611 29.613 38.525 39.748 59.762 19.316 17.939 39.04 34.583 119.813 34.948V26.731zM222.322 43.575h-34.208a7 7 0 1 0 0 14h34.208a7 7 0 1 0 0-14m-16.118 255.928h-1.972a7 7 0 1 0 0 14h1.972a7 7 0 1 0 0-14m-32.156 0h-1.972a7 7 0 1 0 0 14h1.972a7 7 0 1 0 0-14"/></svg>