<svg xmlns="http://www.w3.org/2000/svg" width="800" height="800" fill="none" viewBox="0 0 64 64"><path fill="#2a2941" fill-rule="evenodd" d="m15.46 24 17.135-7.178 12.042 28.186-17.21 7.278z" clip-rule="evenodd"/><path fill="#2a2941" fill-rule="evenodd" d="M18.872 23.225a6.8 6.8 0 0 0-2.032.8l.25 1.35a5.2 5.2 0 0 0-1.354 1.401l-1.405-.125a7 7 0 0 0-.678 2l1.255.6a5.2 5.2 0 0 0 .276 1.852l-1.029 1a6.1 6.1 0 0 0 1.18 1.676l1.329-.576c.502.4 1.079.7 1.68.9l.151 1.351c.703.15 1.43.175 2.158.1l.376-1.35a5.3 5.3 0 0 0 1.832-.726l1.179.7a6.3 6.3 0 0 0 1.505-1.55l-.828-1.075c.301-.55.502-1.176.602-1.826l1.355-.475c.025-.7-.075-1.4-.3-2.05h-1.406a4.4 4.4 0 0 0-1.104-1.527l.477-1.3a6.7 6.7 0 0 0-1.857-1l-.953 1.075c-.652-.15-1.304-.2-1.957-.1zm0 2.8c.903-.374 1.906-.4 2.81-.024.903.35 1.63 1.05 2.032 1.95.175.45.25.926.226 1.4a3.7 3.7 0 0 1-.327 1.377c-.2.425-.476.825-.828 1.15a3.9 3.9 0 0 1-1.229.75c-.903.4-1.907.4-2.835.05-.903-.35-1.656-1.05-2.032-1.95a3.9 3.9 0 0 1-.25-1.426c.024-.475.125-.95.325-1.4.201-.45.502-.85.853-1.176a3.9 3.9 0 0 1 1.23-.75zm22.679 2.327c-.702.175-1.405.425-2.032.8l.251 1.35c-.527.376-.978.876-1.355 1.4l-1.43-.124a6.5 6.5 0 0 0-.702 2.026l1.28.6c-.026.625.05 1.25.275 1.85l-1.028 1c.3.626.702 1.201 1.179 1.677l1.33-.576c.501.4 1.078.726 1.706.9l.15 1.351c.703.15 1.43.2 2.158.1l.376-1.325a5.3 5.3 0 0 0 1.831-.725l1.18.7a6.5 6.5 0 0 0 1.555-1.55l-.853-1.076a5.7 5.7 0 0 0 .602-1.8l1.355-.476a5.7 5.7 0 0 0-.301-2.05h-1.43a4.4 4.4 0 0 0-1.104-1.527l.477-1.3a7 7 0 0 0-1.857-1l-.928 1.075c-.652-.15-1.305-.2-1.957-.1l-.753-1.175v-.025zm0 2.826a3.7 3.7 0 0 1 2.785-.025c.903.35 1.606 1.05 2.007 1.925.176.45.251.926.251 1.426-.025.475-.125.975-.326 1.4-.2.45-.502.85-.853 1.176a3.9 3.9 0 0 1-1.23.75c-.903.375-1.906.4-2.81.05a3.7 3.7 0 0 1-2.031-1.95 3.9 3.9 0 0 1-.251-1.426c.025-.475.125-.95.326-1.4.2-.45.477-.826.853-1.176a3.9 3.9 0 0 1 1.23-.75z" clip-rule="evenodd"/><path fill="#32edbb" fill-rule="evenodd" d="M19.424 21.449a6.5 6.5 0 0 0-2.033.8l.251 1.35A5.2 5.2 0 0 0 16.288 25l-1.43-.125a6.3 6.3 0 0 0-.653 2l1.255.626c-.025.625.05 1.25.276 1.85l-1.029.976c.301.625.702 1.2 1.18 1.7l1.329-.574c.502.4 1.079.725 1.68.9l.151 1.35c.703.15 1.43.2 2.158.1l.401-1.325a5.3 5.3 0 0 0 1.832-.725l1.179.7a6.2 6.2 0 0 0 1.48-1.55l-.853-1.076a4.6 4.6 0 0 0 .602-1.826l1.355-.475a5.7 5.7 0 0 0-.301-2.05h-1.33a4.4 4.4 0 0 0-1.104-1.526l.477-1.3a6.8 6.8 0 0 0-1.882-1.001l-.928 1.05a5.7 5.7 0 0 0-1.957-.1l-.752-1.175zm0 2.8c.903-.374 1.906-.4 2.81-.024.903.35 1.63 1.05 2.032 1.95.175.45.25.926.25 1.426-.025.475-.125.95-.326 1.4-.2.45-.476.851-.853 1.176a4.2 4.2 0 0 1-1.229.75 3.65 3.65 0 0 1-2.81 0 3.7 3.7 0 0 1-2.007-1.975 3.4 3.4 0 0 1-.226-1.4c.025-.476.126-.951.326-1.376.201-.425.477-.826.828-1.15a3.8 3.8 0 0 1 1.205-.751z" clip-rule="evenodd"/><path fill="#2a2941" fill-rule="evenodd" d="m19.925 21.099-.225-.35-.402.1a7.7 7.7 0 0 0-2.208.875l-.35.225.25 1.376c-.376.3-.702.65-.978 1.025l-1.48-.125-.201.35a6.7 6.7 0 0 0-.703 2.201l-.075.45 1.33.65c0 .426.075.876.2 1.301l-1.078 1.025.2.4c.326.7.778 1.326 1.33 1.851l.276.275 1.38-.6c.376.25.777.475 1.179.65l.15 1.426.427.075c.778.175 1.58.2 2.383.125h.402l.401-1.376q.715-.187 1.355-.525l1.254.725.326-.225a7.5 7.5 0 0 0 1.631-1.7l.251-.375-.878-1.126c.2-.4.351-.85.427-1.3l1.404-.5v-.426a6.2 6.2 0 0 0-.35-2.25l-.126-.4H25.92c-.2-.4-.451-.75-.752-1.076l.502-1.35-.352-.276a7.1 7.1 0 0 0-2.057-1.1l-.376-.125-.979 1.1a7 7 0 0 0-1.43-.075l-.552-.85zm-.501.35a6.5 6.5 0 0 0-2.033.8l.251 1.35A5.2 5.2 0 0 0 16.288 25l-1.43-.125a6.3 6.3 0 0 0-.653 2.001l1.255.625c-.025.626.05 1.25.276 1.851l-1.029.975c.301.626.702 1.2 1.18 1.701l1.329-.575c.502.4 1.079.725 1.68.9l.151 1.35c.703.15 1.43.2 2.158.1l.401-1.325a5.3 5.3 0 0 0 1.832-.725l1.179.7a6.2 6.2 0 0 0 1.48-1.55l-.853-1.076a4.6 4.6 0 0 0 .602-1.826l1.355-.475c.025-.7-.1-1.4-.301-2.05h-1.33a4.4 4.4 0 0 0-1.104-1.526l.477-1.3a6.8 6.8 0 0 0-1.882-1l-.928 1.05a5.7 5.7 0 0 0-1.957-.1l-.752-1.176zm0 2.801c.903-.375 1.906-.4 2.81-.025.903.35 1.63 1.05 2.032 1.95.175.451.25.926.25 1.426-.025.476-.125.95-.326 1.4-.2.451-.476.851-.853 1.176a3.9 3.9 0 0 1-1.229.75 3.65 3.65 0 0 1-2.81 0 3.7 3.7 0 0 1-2.007-1.975 3.4 3.4 0 0 1-.226-1.4c.025-.476.126-.951.326-1.376a3.8 3.8 0 0 1 .828-1.15 3.8 3.8 0 0 1 1.205-.75zm.225.55c.753-.325 1.58-.325 2.359-.05.752.3 1.38.876 1.706 1.626.15.375.2.775.175 1.175s-.1.8-.276 1.15c-.175.376-.401.701-.702.951a3.3 3.3 0 0 1-1.029.625 3.08 3.08 0 0 1-2.358.05 3.1 3.1 0 0 1-1.706-1.625c-.15-.375-.2-.776-.176-1.176s.1-.8.276-1.15.402-.675.703-.95c.326-.275.652-.5 1.028-.626" clip-rule="evenodd"/><path fill="#4c5efd" fill-rule="evenodd" d="M42.078 26.6a6.8 6.8 0 0 0-2.032.801l.251 1.35a5.2 5.2 0 0 0-1.355 1.401l-1.405-.125a7 7 0 0 0-.677 2l1.254.601c-.025.625.076 1.25.276 1.85l-1.028 1.001c.3.625.702 1.2 1.179 1.676l1.33-.575c.501.4 1.078.7 1.68.9l.15 1.35c.703.15 1.43.175 2.158.1l.377-1.35a5.3 5.3 0 0 0 1.831-.725l1.18.7a6.2 6.2 0 0 0 1.48-1.55l-.828-1.076a5.8 5.8 0 0 0 .602-1.826l1.355-.475c.025-.7-.076-1.4-.302-2.05H48.2a4.4 4.4 0 0 0-1.104-1.526l.477-1.3a6.7 6.7 0 0 0-1.857-1.001l-.953 1.075c-.653-.15-1.305-.2-1.957-.1l-.753-1.175zm0 2.802c.903-.375 1.907-.4 2.81-.025.903.35 1.63 1.05 2.032 1.95.176.45.251.926.226 1.401s-.125.95-.326 1.376c-.2.425-.477.825-.828 1.15a3.9 3.9 0 0 1-1.23.75q-.676.3-1.43.3c-.476 0-.978-.075-1.43-.25a3.9 3.9 0 0 1-1.229-.775 4 4 0 0 1-.828-1.2 3.4 3.4 0 0 1-.225-1.4c.025-.476.125-.951.326-1.376.2-.426.502-.826.853-1.15a3.4 3.4 0 0 1 1.23-.726h.05z" clip-rule="evenodd"/><path fill="#2a2941" fill-rule="evenodd" d="m42.605 26.25-.226-.35-.426.076a8 8 0 0 0-2.208.875l-.376.225.25 1.376a5.5 5.5 0 0 0-.978 1.05l-1.48-.125-.176.35a6.6 6.6 0 0 0-.702 2.15l-.075.451 1.33.65c.024.425.075.876.2 1.3l-1.079 1.026.176.4c.326.7.777 1.326 1.33 1.851l.3.275 1.355-.6c.377.25.778.475 1.18.65l.15 1.426.427.075c.777.175 1.58.2 2.383.125h.401l.402-1.376a7 7 0 0 0 1.354-.525l1.18.725.326-.225a7.4 7.4 0 0 0 1.706-1.725l.25-.376-.877-1.125c.2-.4.326-.85.426-1.3l1.38-.5v-.426a6.8 6.8 0 0 0-.326-2.25l-.15-.4H48.55a5.6 5.6 0 0 0-.778-1.076l.502-1.35-.351-.276a6.8 6.8 0 0 0-2.057-1.1l-.377-.125-.928 1.075q-.715-.112-1.43-.075l-.552-.85zm-.502.35a6.8 6.8 0 0 0-2.032.801l.251 1.35a5.2 5.2 0 0 0-1.355 1.401l-1.405-.125a7 7 0 0 0-.677 2.001l1.254.625c-.025.625.076 1.25.276 1.85l-1.028 1.001a6.1 6.1 0 0 0 1.179 1.676l1.33-.575c.501.4 1.078.7 1.68.9l.151 1.35c.703.15 1.43.176 2.158.1l.376-1.325a5.3 5.3 0 0 0 1.831-.725l1.18.7a6.2 6.2 0 0 0 1.48-1.55l-.828-1.076a5.8 5.8 0 0 0 .602-1.826l1.355-.475c.025-.7-.076-1.4-.301-2.05H48.2a4.4 4.4 0 0 0-1.104-1.526l.477-1.3a6.7 6.7 0 0 0-1.857-1.001l-.953 1.05a5.7 5.7 0 0 0-1.957-.1l-.753-1.175zm0 2.802c.904-.375 1.907-.4 2.81-.025.903.35 1.63 1.05 2.032 1.95.176.45.251.926.251 1.426-.025.475-.125.95-.326 1.4a3.3 3.3 0 0 1-.853 1.176 3.9 3.9 0 0 1-1.23.75q-.676.3-1.43.3c-.501 0-.978-.074-1.43-.274a3.6 3.6 0 0 1-1.229-.8 4 4 0 0 1-.828-1.201 3.4 3.4 0 0 1-.225-1.4c.025-.476.125-.951.326-1.376a3.8 3.8 0 0 1 .853-1.15 3.4 3.4 0 0 1 1.23-.726h.05zm.226.55a3.2 3.2 0 0 1 2.358-.05c.753.3 1.38.875 1.706 1.626.15.375.201.775.176 1.175s-.125.8-.301 1.176-.427.7-.728.95a2.9 2.9 0 0 1-1.028.6 3.08 3.08 0 0 1-2.358.05 3.1 3.1 0 0 1-1.707-1.625c-.15-.376-.2-.776-.2-1.176.025-.4.1-.8.276-1.15.175-.375.401-.7.702-.976a3.3 3.3 0 0 1 1.029-.625h.075z" clip-rule="evenodd"/><path fill="#fff" fill-rule="evenodd" d="m17.667 19.798 17.136-7.177L46.82 40.806 29.635 48.11z" clip-rule="evenodd"/><path fill="#2a2941" fill-rule="evenodd" d="M35.254 11.545 16.59 19.373 29.158 49.21l18.69-7.928zM18.771 20.25l15.605-6.528 11.34 26.66-15.63 6.628z" clip-rule="evenodd"/><path fill="#2a2941" fill-rule="evenodd" d="m26.147 19.423 2.534-1.05-.376-.925-2.534 1.05zm2.433 9.954-2.684 4.452 5.118.925.201-1.1-3.562-.65 1.856-3.077zm5.796-1.025 3.563.5-1.731 3.05.978.526 2.509-4.552-5.143-.7zm-1.003 5.552-.201-6.228h-1.104l.176 6.203z" clip-rule="evenodd"/></svg>